<svg xmlns="http://www.w3.org/2000/svg" xmlns:xlink="http://www.w3.org/1999/xlink" viewBox="0 0 825 606.4"><defs><linearGradient id="linear-gradient" x1="412.5" x2="412.5" y1="-143.7" y2="1034.3" gradientUnits="userSpaceOnUse"><stop offset="0" stop-color="#5960ce"/><stop offset="1" stop-color="#421476"/></linearGradient><linearGradient id="linear-gradient-2" x1="104" x2="235" y1="190" y2="190" gradientUnits="userSpaceOnUse"><stop offset="0" stop-color="#fff"/><stop offset=".3" stop-color="#c8caef"/><stop offset=".8" stop-color="#787ed7"/><stop offset="1" stop-color="#5960ce"/></linearGradient><linearGradient id="linear-gradient-3" x1="412.5" x2="412.5" y1="459.6" y2="668.5" gradientUnits="userSpaceOnUse"><stop offset="0" stop-color="#fff"/><stop offset="1" stop-color="#5960ce"/></linearGradient><linearGradient id="linear-gradient-4" x1="439.4" x2="439.4" y1="282.5" y2="432.3" xlink:href="#linear-gradient-3"/><linearGradient id="linear-gradient-5" x1="490.6" x2="491.3" y1="249.9" y2="307.1" gradientUnits="userSpaceOnUse"><stop offset="0" stop-color="#6ccb34"/><stop offset="1" stop-color="#32b76b"/></linearGradient><clipPath id="clip-path"><path fill="none" d="M515 162a88 88 0 01-21-6c-28-12-39-46-57-68-20-25-46-47-79-50-36-3-72-2-108 1-34 3-68 8-100 20C95 78 46 114 24 166c-11 27-13 57-6 85a187 187 0 0017 45c8 15 19 28 25 44 5 14 7 31-4 43-9 11-24 16-35 24-21 16-22 26-20 51a92 92 0 0014 44c19 30 52 47 88 47h720c5 0-1-24-3-27-5-8-15-13-24-16-12-5-27-8-34-19-5-7-7-15-10-22-9-29-21-56-47-74-28-18-55-29-63-65-7-34 5-70-6-103-9-30-37-49-67-55-17-4-36-3-54-6z"/></clipPath><style>.cls-6{fill:#421476}.cls-7{fill:#fff}.cls-8{fill:#d2d9e8}.cls-11{fill:#5960ce}.cls-15{opacity:.5}</style></defs><path fill="url(#linear-gradient)" d="M515 162a88 88 0 01-21-6c-28-12-39-46-57-68-20-25-46-47-79-50-36-3-72-2-108 1-34 3-68 8-100 20C95 78 46 114 24 166c-11 27-13 57-6 85a187 187 0 0017 45c8 15 19 28 25 44 5 14 7 31-4 43-9 11-24 16-35 24-21 16-22 26-20 51a92 92 0 0014 44c19 30 52 47 88 47h720c5 0-1-24-3-27-5-8-15-13-24-16-12-5-27-8-34-19-5-7-7-15-10-22-9-29-21-56-47-74-28-18-55-29-63-65-7-34 5-70-6-103-9-30-37-49-67-55-17-4-36-3-54-6z"/><g clip-path="url(#clip-path)" opacity=".3"><path d="M18 149h785v28H18zM93 0h92v149H93zm160 80h46a23 23 0 0123 23v46h-92v-46a23 23 0 0123-23zm-2-19h50v19h-50zm113 3h93v85h-93zM18 364h785v28H18zm75-110h92v110H93zm451 41h45a23 23 0 0124 23v46h-93v-46a23 23 0 0124-23z" class="cls-6"/><path d="M541 276h51v19h-51zM18 579h785v27H18zm75-149h92v148H93zm160 80h46a23 23 0 0123 23v45h-92v-45a23 23 0 0123-23zm-2-19h50v19h-50zm423 19h46a23 23 0 0123 23v45h-92v-45a23 23 0 0123-23zm-2-19h50v19h-50zm-308 3h93v85h-93z" class="cls-6"/></g><path d="M623 437l-1 12-11 100h-64l-11-100-2-12h89z" class="cls-7"/><path d="M623 437l-1 12h-86l-2-12h89z" class="cls-8"/><path fill="#e5e9f1" d="M524 420h110v17H524z"/><path fill="#f4f6fa" d="M623 420h-89l9-15h71l9 15z"/><path d="M629 449l-9 75h-83l-8-75h100z" class="cls-11"/><circle cx="578.8" cy="486.4" r="20" fill="#757be4"/><path d="M491 211v337a50 50 0 01-14 1H235c-28 0-50-22-50-47V215h-50v-50h145l161-2a50 50 0 0150 48z" class="cls-7"/><path d="M264 277h12l-24-42-25 42h13l-13 21h19v12h11v-12h19l-12-21z" class="cls-11"/><path fill="url(#linear-gradient-2)" d="M85 215a50 50 0 01100 0z"/><path fill="url(#linear-gradient-3)" d="M527 500H285a50 50 0 01-3 14 57 57 0 01-1 5l-1 1-1 2a50 50 0 01-9 13 50 50 0 01-13 9l-2 1h-1a44 44 0 01-4 2 50 50 0 01-15 2h305a50 50 0 0050-49z"/><g class="cls-15"><rect width="221" height="16" x="227.4" y="416" class="cls-8" rx="8"/><rect width="221" height="16" x="227.4" y="454.1" class="cls-8" rx="8"/></g><g class="cls-15"><rect width="85.6" height="16" x="227.4" y="332.7" class="cls-8" rx="8"/><rect width="85.6" height="16" x="227.4" y="364.1" class="cls-8" rx="8"/></g><path fill="url(#linear-gradient-4)" d="M388 251h103v75H388z"/><path fill="url(#linear-gradient-5)" d="M398 239h186v76H398z"/><path d="M456 315h-56l41-76h56l-41 76zm42 0h-14l40-76h14l-40 76z" style="mix-blend-mode:overlay" fill="#fff" opacity=".2"/><text fill="#fff" font-family="'Proxima Nova',Raleway,'Open Sans'" font-size="28.8" font-weight="800" transform="translate(426 286)"><tspan letter-spacing="-.1em">P</tspan> <tspan x="16.4" y="0" letter-spacing="-.1em">A</tspan> <tspan x="34.6" y="0">Y N</tspan> <tspan x="82.2" y="0" letter-spacing="0em">O</tspan> <tspan x="103.6" y="0">W</tspan></text><path d="M561 346s-16 10-14 24a18 18 0 008 12c5 3 11 9 10 17a72 72 0 016-12 16 16 0 00-5-21c-6-3-9-11-5-20z" class="cls-11"/></svg>
