<svg height="62" viewBox="0 0 60 62" width="60" xmlns="http://www.w3.org/2000/svg"><g fill="none" fill-rule="evenodd" stroke="#3e5de9" stroke-linecap="round" stroke-linejoin="round"><path d="m9.31 1.034h41.38m-2.07 0v26.897h10.346v20.69h-57.932v-20.691h10.346v-26.896"/><path d="m38.276 47.586v-13.448h-16.552v13.448l-4.138 13.448h24.828zm-8.276-12.931v12.931m-12.414-19.655h8.276v-8.276h-8.276zm16.552 0h8.276v-8.276h-8.276zm-16.552-14.483h8.276v-8.276h-8.276zm16.552 0h8.276v-8.276h-8.276zm-12.414 6.207v8.276m-16.552 14.483h12.414v-8.276h-12.414zm6.208-8.276v8.276m31.034 0h12.414v-8.276h-12.414zm6.206-8.276v8.276m-10.344-22.759v8.276m-16.552-22.759v8.276m16.552-8.276v8.276"/></g></svg>