<svg height="70" viewBox="0 0 52 70" width="52" xmlns="http://www.w3.org/2000/svg"><g fill="none" fill-rule="evenodd" stroke="#3e5de9" stroke-linecap="round" stroke-linejoin="round"><path d="m39.095 62.862c-8.688-7.014-17.693-15.244-20.219-24.205-.897-3.183.905-6.507 4.029-7.423 3.121-.916 6.38.92 7.278 4.109 1.693 6.005 11.567 14.378 16.055 18.002"/><path d="m51 40.259s-9.19-7.755-9.524-8.328c-2.793-9.37-12.486-14.766-21.755-12.068-4.535 1.33-8.288 4.378-10.571 8.587-2.281 4.207-2.883 8.903-1.581 13.524 2.21 7.836-2.519 12.46-6.569 13.75"/><path d="m48.619 47.397c-11.171-9.018-12.25-11.816-12.783-13.712-1.796-6.37-8.315-10.041-14.557-8.219-6.246 1.833-9.45 8.378-8.055 14.85 2.971 13.81-.11 19.013-7.462 21.356m38.095-3.569c-2.695-2.75-16.51-11.103-19.327-21.103m9.803 30.62c-1.502-1.532-4.473-7.137-8.333-7.137s-3.571 9.517-3.571 9.517m-4.762-19.034c1.41 4.499-1.234 15.091-5.953 16.655"/><path d="m51 31.931c-6.802-2.25-6.986-19.034-26.471-19.034-12.996 0-23.529 10.745-23.529 24m0 6.931c0 1.499 1.19 3.569 1.19 3.569"/><path d="m2.4 14.759c1.562-2.625 8.365-9.001 20.589-9.001 12.223 0 20.497 6.376 22.06 9m-35.225-10.758c3.554-1.625 4.166-3 13.235-3 9.65 0 12.255 1.625 16.176 3m8.824 15s2.205 3.45 2.94 5.794"/></g></svg>