<svg height="58" viewBox="0 0 60 58" width="60" xmlns="http://www.w3.org/2000/svg"><g fill="none" fill-rule="evenodd" stroke="#3e5de9" stroke-linecap="round" stroke-linejoin="round"><path d="m19.655 40.345h-13.448a5.172 5.172 0 0 1 -5.172-5.173v-28.965a5.172 5.172 0 0 1 5.172-5.173h47.586a5.172 5.172 0 0 1 5.173 5.173v28.965a5.172 5.172 0 0 1 -5.173 5.173h-9.31"/><path d="m6.207 6.207 19.655 14.483c1.918 1.386 5.324 1.386 7.241 0l19.657-14.483m-45.519 27.931 12.414-12.414m33.104 12.414-12.414-12.414m-24.828 28.966 22.759-22.76 6.207 6.207-22.759 22.759h-6.207zm16.552-16.552 6.207 6.207"/></g></svg>