<?xml version="1.0"?>
<svg xmlns="http://www.w3.org/2000/svg" height="512px" viewBox="-69 1 511 511.999" width="512px"><g><path d="m339.945312 274.421875h-19.722656v-238.21875c0-19.960937-16.238281-36.203125-36.203125-36.203125h-181.757812c-14.507813 0-26.867188 6.207031-35.347657 15.683594-50.042968 57.441406-61.488281 64.6875-64.121093 78.203125-3.988281 12.8125-1.394531-3.324219-2.152344 381.910156 0 19.960937 16.242187 36.203125 36.203125 36.203125h247.175781c19.964844 0 36.203125-16.242188 36.203125-36.203125v-19.59375h14.964844c21.523438 0 39.035156-17.511719 39.035156-39.039063 0-37.359374 0-79.253906 0-108.464843 0-18.898438-15.375-34.277344-34.277344-34.277344zm-253.167968-249.609375v38.667969c0 12.304687-10.011719 22.320312-22.320313 22.320312h-33.332031c53.65625-59.535156 50.753906-57.632812 55.652344-60.988281zm213.445312 450.984375c0 8.933594-7.269531 16.203125-16.203125 16.203125h-247.175781c-8.933594 0-16.203125-7.269531-16.203125-16.203125.035156-384.515625-.082031-367.78125.09375-369.996094h43.722656c23.335938 0 42.320313-18.984375 42.320313-42.320312v-43.480469h177.242187c8.9375 0 16.203125 7.269531 16.203125 16.203125v291.636719h-116.722656c-12.902344 0-23.398438 10.496094-23.398438 23.398437v81.566407c0 12.902343 10.496094 23.398437 23.398438 23.398437h116.722656zm54-58.632813c0 10.5-8.539062 19.039063-19.035156 19.039063-23.328125 0-129.957031 0-151.6875 0-1.875 0-3.398438-1.523437-3.398438-3.398437v-81.566407c0-1.871093 1.523438-3.398437 3.398438-3.398437 170.566406 0 160.554688 1.320312 170.722656-3.730469zm0-105.265624c0 8.792968-7.148437 15.941406-15.9375 15.941406h-18.0625v-33.417969h19.722656c7.871094 0 14.277344 6.40625 14.277344 14.28125zm0 0" data-original="#000000" class="active-path" data-old_color="#000000" fill="#90989F"/><path d="m250.828125 169.539062h-.027344c-5.519531 0-9.984375 4.476563-9.984375 10 0 5.523438 4.488282 10 10.011719 10s10-4.476562 10-10c0-5.523437-4.480469-10-10-10zm0 0" data-original="#000000" class="active-path" data-old_color="#000000" fill="#90989F"/><path d="m67.816406 189.539062h143.011719c5.519531 0 10-4.476562 10-10 0-5.523437-4.480469-10-10-10h-143.011719c-5.523437 0-10 4.476563-10 10 0 5.523438 4.476563 10 10 10zm0 0" data-original="#000000" class="active-path" data-old_color="#000000" fill="#90989F"/><path d="m67.816406 245.503906h183.011719c5.519531 0 10-4.476562 10-10 0-5.523437-4.480469-10-10-10h-183.011719c-5.523437 0-10 4.476563-10 10 0 5.523438 4.476563 10 10 10zm0 0" data-original="#000000" class="active-path" data-old_color="#000000" fill="#90989F"/><path d="m260.828125 291.464844c0-5.523438-4.480469-10-10-10h-183.011719c-5.523437 0-10 4.476562-10 10 0 5.523437 4.476563 10 10 10h183.011719c5.519531 0 10-4.476563 10-10zm0 0" data-original="#000000" class="active-path" data-old_color="#000000" fill="#90989F"/></g> </svg>
