<svg width="62" height="62" viewBox="0 0 62 62" xmlns="http://www.w3.org/2000/svg"><title>Group 921</title><g stroke="#3e5de9" fill="none" fill-rule="evenodd" stroke-linecap="round" stroke-linejoin="round"><path d="M18.586 57.897c-1.15-2.067-4.13-3.104-7.241-3.104-3.112 0-6.091 1.037-7.242 3.104M13.414 48.586a2.068 2.068 0 1 1-4.137.001 2.068 2.068 0 0 1 4.137 0z"/><path d="M21.69 50.655c0-5.712-4.63-10.345-10.345-10.345C5.63 40.31 1 44.943 1 50.655 1 56.368 5.63 61 11.345 61c5.714 0 10.345-4.632 10.345-10.345zM61 13.414C61 6.557 55.445 1 48.586 1c-6.858 0-12.414 5.557-12.414 12.414 0 6.856 5.556 12.414 12.414 12.414C55.445 25.828 61 20.27 61 13.414zM1 1l18.62 18.62M1 19.62L19.62 1M56.862 56.862L40.31 40.31M15.483 40.31c2.586-7.812 7.823-13.212 16.551-16.551"/><path d="M25.828 21.69l6.206 2.069-2.068 6.207M56.862 40.31L40.31 56.862M43.414 15.13c.172 1.352 2.416 2.422 5.168 2.422 2.857 0 5.177-1.16 5.177-2.586 0-2.109-4.267-2.462-5.169-2.586-.904-.125-5.176-.478-5.176-2.587 0-1.43 2.321-2.586 5.176-2.586 2.752 0 4.997 1.07 5.169 2.42M48.586 5.138V19.62"/></g></svg>