<?xml version="1.0"?>
<svg xmlns="http://www.w3.org/2000/svg" height="512px" viewBox="1 -4 511.999 511" width="512px" class=""><g><path d="m471.914062 393.539062v-14.359374c0-4.140626-3.355468-7.5-7.5-7.5-4.140624 0-7.5 3.359374-7.5 7.5v11.910156c-.519531-.015625-1.039062-.023438-1.5625-.023438h-164.4375v-54.949218h166v12.894531c0 4.140625 3.359376 7.5 7.5 7.5 4.144532 0 7.5-3.359375 7.5-7.5v-14.355469c0-7.464844-6.070312-13.539062-13.539062-13.539062h-65.953125v-14.824219c0-31.589844-18.496094-52.390625-56.542969-63.589844-.226562-.066406-.453125-.125-.6875-.167969l-74.257812-14.441406v-15.664062c2.589844-1.789063 5.117187-3.742188 7.582031-5.863282 13.324219-11.472656 21.828125-27.902344 23.9375-45.878906 9.984375-1.128906 17.769531-9.621094 17.769531-19.902344v-13.234375c6.488282-3.039062 10.988282-9.628906 10.988282-17.253906 0-9.085937-6.398438-16.707031-14.925782-18.59375v-4.757813c0-47.667968-38.78125-86.445312-86.445312-86.445312h-7.175782c-27.902343 0-54.234374 13.582031-70.445312 36.332031-2.402344 3.375-1.617188 8.058594 1.757812 10.460938 3.375 2.40625 8.054688 1.617187 10.457032-1.757813 5.914062-8.300781 13.460937-15.125 22.023437-20.15625v14.195313c0 4.144531 3.359375 7.5 7.5 7.5 4.144531 0 7.5-3.355469 7.5-7.5v-20.839844c5.71875-1.785156 11.683594-2.859375 17.765625-3.152344v41.90625c0 4.140625 3.355469 7.5 7.5 7.5 4.140625 0 7.5-3.359375 7.5-7.5v-41.855469c5.820313.351563 11.457032 1.40625 16.824219 3.078126v20.863281c0 4.144531 3.355469 7.5 7.5 7.5 4.140625 0 7.5-3.355469 7.5-7.5v-14.207031c21.070313 12.4375 35.238281 35.382812 35.238281 61.574218v4.3125h-150.066406v-4.3125c0-5.644531.660156-11.257812 1.960938-16.691406.960937-4.027344-1.523438-8.074219-5.550782-9.039062-4.035156-.96875-8.074218 1.523437-9.039062 5.550781-1.574219 6.574219-2.371094 13.363281-2.371094 20.179687v4.761719c-8.527344 1.886719-14.925781 9.507813-14.925781 18.59375 0 7.621094 4.503906 14.214844 10.988281 17.253906v13.234375c0 10.277344 7.785156 18.773438 17.769531 19.898438 2.109375 17.980468 10.617188 34.410156 23.9375 45.882812 2.464844 2.121094 4.992188 4.074219 7.582031 5.859375v15.667969l-74.257812 14.4375c-.234375.046875-.460938.101562-.6875.167969-38.046875 11.203125-56.542969 32.003906-56.542969 63.59375v87.242187c-23.179687 7.101563-40.082031 28.703125-40.082031 54.179688 0 31.234375 25.410156 56.648437 56.648438 56.648437h398.703124c31.234376 0 56.648438-25.414062 56.648438-56.648437 0-25.476563-16.902344-47.078125-40.085938-54.175782zm-135.054687-134.804687c27.996094 9.429687 40.5625 24.253906 40.5625 47.558594v14.824219h-40.5625zm-210.566406-148.4375c0-2.230469 1.8125-4.042969 4.039062-4.042969h171.839844c2.230469 0 4.042969 1.816406 4.042969 4.042969s-1.816406 4.039063-4.042969 4.039063h-171.839844c-2.226562 0-4.039062-1.808594-4.039062-4.039063zm28.253906 42.855469c-.089844-4.078125-3.417969-7.339844-7.5-7.339844h-4.738281c-2.769532 0-5.027344-2.253906-5.027344-5.027344v-11.445312h157.941406v11.445312c0 2.773438-2.253906 5.027344-5.027344 5.027344h-4.738281c-4.078125 0-7.410156 3.261719-7.496093 7.339844-.355469 16.503906-7.363282 31.828125-19.230469 42.046875-12.363281 10.644531-26.652344 16.140625-42.476563 16.335937-15.824218-.195312-30.113281-5.691406-42.476562-16.335937-11.867188-10.21875-18.878906-25.542969-19.230469-42.046875zm91.386719 67.457031v13.667969c0 16.363281-13.316406 29.679687-29.679688 29.679687-16.367187 0-29.683594-13.3125-29.683594-29.679687v-13.667969c9.261719 3.820313 19.152344 5.808594 29.597657 5.925781h.167969c10.445312-.117187 20.335937-2.101562 29.597656-5.925781zm-98.902344 27.539063 25.4375-4.949219c4.144531 20.378906 22.203125 35.757812 43.785156 35.757812 21.582032 0 39.636719-15.378906 43.785156-35.757812l25.433594 4.949219v42.347656c0 4.101562-3.339844 7.4375-7.441406 7.4375h-123.554688c-4.105468 0-7.441406-3.335938-7.441406-7.4375v-42.347656zm-36.386719 7.074218 21.390625-4.160156v39.433594c0 12.375 10.066406 22.4375 22.441406 22.4375h123.554688c12.371094 0 22.441406-10.0625 22.441406-22.4375v-39.433594l21.386719 4.160156v65.894532h-32.402344c-7.46875 0-13.542969 6.074218-13.542969 13.539062v56.410156h-165.269531zm-55.558593 51.070313c0-23.304688 12.5625-38.128907 40.558593-47.558594v62.382813h-40.558593zm0 29.824219h40.558593v54.949218h-38.996093c-.523438 0-1.046876.007813-1.5625.023438zm400.265624 153.246093h-398.703124c-22.964844 0-41.648438-18.683593-41.648438-41.648437s18.683594-41.648438 41.648438-41.648438h398.703124c22.964844 0 41.648438 18.683594 41.648438 41.648438s-18.683594 41.648437-41.648438 41.648437zm0 0" data-original="#000000" class="active-path" data-old_color="#000000" fill="#CBD2D7"/><path d="m455.351562 419.105469h-398.703124c-15.777344 0-28.613282 12.835937-28.613282 28.609375 0 15.777344 12.835938 28.609375 28.613282 28.609375h398.703124c15.777344 0 28.609376-12.832031 28.609376-28.609375.003906-15.773438-12.832032-28.609375-28.609376-28.609375zm-398.703124 42.222656c-6.742188 0-12.355469-4.929687-13.425782-11.375-.011718-.054687-.019531-.109375-.027344-.167969-.019531-.109375-.035156-.222656-.046874-.335937-.007813-.058594-.015626-.113281-.023438-.171875-.023438-.226563-.046875-.457032-.058594-.6875-.019531-.289063-.03125-.582032-.03125-.875 0-.292969.011719-.582032.03125-.871094.011719-.230469.035156-.460938.058594-.6875.007812-.058594.015625-.113281.023438-.171875.011718-.113281.027343-.226563.046874-.335937.007813-.058594.015626-.113282.027344-.171876 1.070313-6.441406 6.683594-11.371093 13.425782-11.371093 7.503906 0 13.609374 6.105469 13.609374 13.609375s-6.105468 13.609375-13.609374 13.613281zm100.4375 0h-75.277344c2.199218-4.050781 3.449218-8.6875 3.449218-13.613281 0-4.921875-1.25-9.558594-3.449218-13.609375h75.277344c-2.199219 4.050781-3.449219 8.6875-3.449219 13.609375s1.25 9.5625 3.449219 13.613281zm25.160156 0c-7.507813 0-13.609375-6.105469-13.609375-13.613281 0-7.503906 6.101562-13.609375 13.609375-13.609375 7.503906 0 13.609375 6.105469 13.609375 13.609375 0 7.507812-6.105469 13.613281-13.609375 13.613281zm122.347656 0h-97.1875c2.199219-4.050781 3.449219-8.6875 3.449219-13.613281 0-4.921875-1.25-9.558594-3.449219-13.609375h97.1875c-2.199219 4.050781-3.449219 8.6875-3.449219 13.609375s1.25 9.5625 3.449219 13.613281zm25.160156 0c-7.503906 0-13.609375-6.105469-13.609375-13.613281 0-7.503906 6.105469-13.609375 13.609375-13.609375 7.507813 0 13.609375 6.105469 13.609375 13.609375 0 7.507812-6.101562 13.613281-13.609375 13.613281zm25.160156 0c2.199219-4.050781 3.449219-8.6875 3.449219-13.613281 0-4.921875-1.25-9.558594-3.449219-13.609375h75.277344c-2.199218 4.050781-3.449218 8.6875-3.449218 13.609375 0 4.925781 1.25 9.5625 3.449218 13.613281zm100.4375 0c-7.503906 0-13.609374-6.109375-13.609374-13.613281s6.105468-13.609375 13.609374-13.609375c7.503907 0 13.613282 6.105469 13.613282 13.609375 0 7.507812-6.109375 13.613281-13.613282 13.613281zm0 0" data-original="#000000" class="active-path" data-old_color="#000000" fill="#CBD2D7"/></g> </svg>
