<svg xmlns="http://www.w3.org/2000/svg" viewBox="0 0 60 62"><style>path{fill:none;stroke:#3e5de9;stroke-linecap:round;stroke-linejoin:round}</style><path d="M0 56.7c5 0 5 4.3 10 4.3s5-4.3 10-4.3S25 61 30 61s5-4.3 10-4.3S45 61 50 61s5-4.3 10-4.3m0-6.4c-5 0-5 4.3-10 4.3s-5-4.3-10-4.3-5 4.3-10 4.3-5-4.3-10-4.3-5 4.3-10 4.3-5-4.2-10-4.2"/><path d="M15 52.4L6.5 33 30 28l23.5 5L45 52.5M30 33v21.5M25.7 1v8.6m-15 8.6h38.5m-38.5 8.5h38.5m-30-17v20M30 9.7v17.6m8.6-17.8v19.7"/><path d="M10.7 31.8V9.6h38.6v22.2M15 9.6V1h30v8.6"/></svg>